<svg width="222" height="72" viewBox="0 0 222 72" fill="none" xmlns="http://www.w3.org/2000/svg">
<path d="M38.5994 38.5034C41.1136 37.4809 43.2922 35.7788 44.8903 33.5884C46.8251 30.7485 47.8097 27.3704 47.7033 23.9379C47.7033 18.4429 45.843 14.087 42.1223 10.8702C38.4017 7.65335 33.291 6.04492 26.7904 6.04492H0V70.8542H26.8893C30.9158 70.9666 34.9236 70.2649 38.6713 68.7914C41.6964 67.5812 44.2625 65.4503 46.0047 62.7015C47.7375 59.7857 48.6069 56.4396 48.5121 53.0509C48.6626 49.4982 47.5907 46.0011 45.4745 43.1403C43.6962 40.9464 41.3024 39.3319 38.5994 38.5034V38.5034ZM25.4244 18.1529C28.0606 18.1529 30.0827 18.7509 31.4906 19.9467C32.8926 21.1485 33.5936 22.9423 33.5936 25.3281C33.6621 26.3419 33.5141 27.3587 33.1593 28.3112C32.8045 29.2636 32.2511 30.13 31.5356 30.8529C30.1516 32.1355 28.1205 32.7812 25.4244 32.7812H13.7412V18.1529H25.4244ZM32.3444 56.9076C30.9334 58.1363 28.8574 58.7552 26.0984 58.7552H13.7412V44.3511H26.1254C28.8215 44.3511 30.8885 44.949 32.3264 46.1449C33.0652 46.7972 33.6432 47.6108 34.0158 48.5223C34.3883 49.4338 34.5452 50.4188 34.4743 51.4006C34.4114 53.8402 33.7464 55.6878 32.3444 56.9076Z" fill="#FF6B00"/>
<path d="M89.6332 28.6735C85.8241 26.6942 81.5789 25.6983 77.285 25.7766C72.9507 25.6955 68.6642 26.691 64.811 28.6735C61.2609 30.519 58.2954 33.3139 56.2463 36.7456C54.2008 40.445 53.1279 44.6013 53.1279 48.8266C53.1279 53.0519 54.2008 57.2083 56.2463 60.9078C58.2984 64.337 61.2631 67.1313 64.811 68.9798C68.665 70.9592 72.9515 71.9516 77.285 71.8677C81.5781 71.9488 85.8232 70.956 89.6332 68.9798C93.1635 67.1198 96.1139 64.3275 98.162 60.9078C100.208 57.2083 101.28 53.0519 101.28 48.8266C101.28 44.6013 100.208 40.445 98.162 36.7456C96.1153 33.3247 93.1646 30.532 89.6332 28.6735ZM86.7394 54.8089C85.8755 56.4534 84.564 57.8213 82.9559 58.7552C81.225 59.7194 79.2667 60.2026 77.285 60.1544C75.2925 60.1981 73.3237 59.7154 71.5783 58.7552C69.9503 57.835 68.6238 56.4645 67.7588 54.8089C66.8598 52.9406 66.3931 50.8946 66.3931 48.8221C66.3931 46.7496 66.8598 44.7037 67.7588 42.8354C68.6332 41.1981 69.9584 39.8445 71.5783 38.934C73.3237 37.9737 75.2925 37.491 77.285 37.5348C79.2667 37.4866 81.225 37.9698 82.9559 38.934C84.5555 39.8587 85.8656 41.2096 86.7394 42.8354C87.6327 44.7053 88.0963 46.7506 88.0963 48.8221C88.0963 50.8937 87.6327 52.939 86.7394 54.8089V54.8089Z" fill="#FF6B00"/>
<path d="M220.134 60.3696C219.47 59.2318 218.503 58.3003 217.339 57.6789C216.088 57.032 214.695 56.7053 213.286 56.7282C211.863 56.7035 210.455 57.0301 209.188 57.6789C208.018 58.2973 207.044 59.2291 206.375 60.3696C205.703 61.5849 205.351 62.9503 205.351 64.3383C205.351 65.7264 205.703 67.0918 206.375 68.3071C207.048 69.4326 208.022 70.3487 209.188 70.9529C210.453 71.606 211.862 71.9328 213.286 71.9036C214.696 71.9307 216.089 71.6037 217.339 70.9529C218.498 70.3456 219.465 69.4299 220.134 68.3071C220.806 67.0918 221.159 65.7264 221.159 64.3383C221.159 62.9503 220.806 61.5849 220.134 60.3696V60.3696Z" fill="#FF6B00"/>
<path d="M159.885 31.3911C158.451 29.5294 156.538 28.091 154.349 27.2296C151.875 26.1921 149.214 25.6703 146.53 25.6959C142.495 25.5955 138.513 26.6272 135.036 28.6736C131.788 30.6616 129.181 33.5378 127.523 36.9608C125.707 40.78 124.805 44.968 124.889 49.1944C124.79 53.3598 125.677 57.4898 127.478 61.2486C129.077 64.5374 131.596 67.2941 134.73 69.1861C138.06 71.1188 141.862 72.0907 145.712 71.9933C148.694 72.0328 151.643 71.3722 154.322 70.065C156.657 69.0015 158.618 67.2607 159.948 65.0693L160.649 70.8543H172.952V0L159.858 6.08992L159.885 31.3911ZM158.402 54.6296C157.51 56.2801 156.171 57.6474 154.538 58.5759C152.791 59.542 150.818 60.0279 148.822 59.984C146.837 60.0291 144.877 59.5263 143.16 58.531C141.572 57.6008 140.288 56.2297 139.466 54.5847C138.58 52.7713 138.142 50.7721 138.19 48.7549C138.146 46.7238 138.584 44.711 139.466 42.8803C140.282 41.2191 141.565 39.8318 143.16 38.8891C144.878 37.8969 146.837 37.3973 148.822 37.4451C150.817 37.4028 152.789 37.8853 154.538 38.8443C156.169 39.7751 157.507 41.1418 158.402 42.7906C159.371 44.6272 159.853 46.6801 159.804 48.7549C159.847 50.8005 159.364 52.8229 158.402 54.6296V54.6296Z" fill="#FF6B00"/>
<path d="M206.258 39.3734L209.736 27.095C208.85 26.8705 207.949 26.7086 207.04 26.6106C206.195 26.5299 205.36 26.4851 204.533 26.4851C201.016 26.4851 198.206 27.4209 196.103 29.2924C194.752 30.4787 193.681 31.9489 192.966 33.5974L192.239 27.1847H179.971V70.8542H193.065V51.5263C193.065 47.2032 194.162 44.0911 196.355 42.1897C198.547 40.2882 201.579 39.3375 205.449 39.3375L206.258 39.3734Z" fill="#FF6B00"/>
<path d="M106.547 70.8542H119.641V6.05396L106.547 12.1438V70.8542Z" fill="#FF6B00"/>
</svg>
